<?xml version="1.0" standalone="no"?>
<!DOCTYPE svg PUBLIC "-//W3C//DTD SVG 20010904//EN"
 "http://www.w3.org/TR/2001/REC-SVG-20010904/DTD/svg10.dtd">
<svg version="1.0" xmlns="http://www.w3.org/2000/svg"
 width="256.000000pt" height="256.000000pt" viewBox="0 0 256.000000 256.000000"
 preserveAspectRatio="xMidYMid meet">

<g transform="translate(0.000000,256.000000) scale(0.100000,-0.100000)"
fill="#000000" stroke="none">
<path d="M1161 2090 c-311 -66 -558 -292 -640 -587 -20 -73 -37 -183 -29 -183
3 0 87 34 188 75 101 41 187 75 192 75 5 0 8 -19 6 -42 l-3 -42 -163 -67 c-90
-37 -165 -69 -168 -71 -2 -2 73 -35 166 -74 l170 -69 0 -42 c0 -24 -3 -43 -7
-43 -5 0 -89 34 -188 75 -135 55 -181 70 -183 60 -6 -26 38 -167 74 -239 99
-199 271 -347 484 -418 89 -30 104 -32 245 -32 115 -1 165 4 215 17 161 45
321 149 426 276 64 76 137 218 160 309 27 111 33 110 -171 26 -98 -41 -183
-74 -187 -74 -4 0 -8 18 -8 40 0 40 1 41 63 69 34 15 111 47 170 70 59 24 105
46 102 49 -3 3 -78 35 -168 72 l-162 66 -3 42 c-2 26 1 42 8 42 6 0 88 -32
183 -71 95 -39 178 -74 186 -77 12 -4 13 5 8 54 -16 146 -86 311 -181 425
-103 126 -265 231 -421 274 -70 19 -298 29 -364 15z m269 -755 c0 -191 -3
-242 -15 -265 -27 -52 -104 -77 -198 -66 -78 10 -82 15 -65 67 8 24 19 44 24
44 5 -1 31 -5 57 -9 39 -7 51 -5 67 9 19 17 20 32 20 230 0 116 3 215 7 218 3
4 28 7 55 7 l48 0 0 -235z"/>
</g>
</svg>
